```mermaid
erDiagram
    CUSTOMERS ||--o{ ORDERS : "customer_id"
    ORDERS ||--o{ ORDER_ITEMS : "order_id"
    ORDERS ||--o{ PAYMENTS : "order_id"
    ORDERS ||--o| REVIEWS : "order_id"
    ORDER_ITEMS ||--|| PRODUCTS : "product_id"
    ORDER_ITEMS ||--|| SELLERS : "seller_id"
    PRODUCTS ||--o| CATEGORY_TRANSLATION : "product_category_name"

    CUSTOMERS {
        string customer_id PK
        string customer_unique_id
        int customer_zip_code_prefix
        string customer_city
        string customer_state
    }

    ORDERS {
        string order_id PK
        string customer_id FK
        string order_status
        datetime order_purchase_timestamp
        datetime order_approved_at
        datetime order_delivered_carrier_date
        datetime order_delivered_customer_date
        datetime order_estimated_delivery_date
    }

    ORDER_ITEMS {
        string order_id FK
        int order_item_id
        string product_id FK
        string seller_id FK
        datetime shipping_limit_date
        float price
        float freight_value
    }

    PAYMENTS {
        string order_id FK
        int payment_sequential
        string payment_type
        int payment_installments
        float payment_value
    }

    REVIEWS {
        string review_id PK
        string order_id FK
        int review_score
        string review_comment_title
        string review_comment_message
        datetime review_creation_date
        datetime review_answer_timestamp
    }

    PRODUCTS {
        string product_id PK
        string product_category_name FK
        string product_name_lenght
        string product_description_lenght
        int product_photos_qty
        float product_weight_g
        int product_length_cm
        int product_height_cm
        int product_width_cm
    }

    SELLERS {
        string seller_id PK
        int seller_zip_code_prefix
        string seller_city
        string seller_state
    }

    CATEGORY_TRANSLATION {
        string product_category_name PK
        string product_category_name_english PK
    }
```
